<svg width="57" height="47" viewBox="0 0 57 47" fill="none" xmlns="http://www.w3.org/2000/svg">
<path d="M5.76661 1.1821C5.62989 1.33881 5.61036 2.1895 5.61036 8.83831V16.3266L5.8252 16.4945C6.1084 16.7184 6.15722 16.7184 6.39159 16.4497C6.5869 16.2259 6.5869 16.0804 6.5869 9.23007C6.5869 3.71178 6.6162 2.23427 6.71385 2.22308C6.77244 2.22308 8.41304 2.21188 10.3466 2.22308C14.5848 2.22308 15.2 2.30143 16.5379 3.04019C18.1687 3.94684 19.0769 5.62584 19.1355 7.81972C19.1843 9.99121 18.4226 11.6366 16.8699 12.6776C15.9617 13.282 15.9227 13.1365 18.0222 16.6176C18.2468 16.987 18.7156 17.7594 19.0574 18.319C19.5847 19.2033 19.7214 19.36 19.946 19.36C20.2683 19.36 20.4538 19.1809 20.4538 18.8563C20.4538 18.7332 20.0534 17.972 19.5652 17.1773C18.1394 14.8603 17.5047 13.7522 17.5437 13.6626C17.5632 13.6066 17.8074 13.3604 18.0808 13.1029C19.448 11.8717 20.1609 10.1143 20.1609 7.94284C20.1609 6.14073 19.5847 4.5177 18.53 3.33121C17.8464 2.54768 17.739 2.45814 16.8797 1.97683C15.4246 1.14852 14.3602 1.00301 9.59466 1.00301C6.38183 1.00301 5.89356 1.0254 5.76661 1.1821Z" fill="#7836BA"/>
<path d="M21.694 1.1933C21.5378 1.39478 21.528 2.01041 21.528 9.94644C21.528 15.6102 21.5573 18.5541 21.6257 18.6996C21.7429 18.9458 22.0944 18.9794 22.3385 18.7667C22.4948 18.6436 22.5046 17.9832 22.5241 10.4166L22.5534 2.1895L26.2154 2.22308C28.2271 2.23427 30.1509 2.29024 30.4829 2.3574C31.4399 2.5253 32.2895 2.87229 32.9145 3.34241C33.686 3.93565 33.7348 3.98042 34.2035 4.70799C34.7504 5.54748 35.0141 6.42056 35.0727 7.66301C35.2289 10.8307 33.4711 13.1029 30.4439 13.6402C30.063 13.7074 28.9497 13.7634 27.9732 13.7634C26.9381 13.7634 26.1275 13.8081 26.0103 13.8753C25.8443 13.9872 25.8248 14.1215 25.8248 15.2297C25.8248 16.405 25.8346 16.4609 26.0592 16.5729C26.2252 16.6624 26.3424 16.6624 26.4986 16.5729C26.7135 16.4385 26.7428 16.3042 26.7428 15.4423L26.7525 14.9386L28.7056 14.8715C30.2485 14.8155 30.8247 14.7484 31.4399 14.5581C33.2563 13.9984 34.7504 12.756 35.4145 11.2449C35.8832 10.1927 36.0199 9.47633 36.0297 8.11074C36.0297 7.32722 35.9711 6.53249 35.9027 6.20789C35.7172 5.44674 35.2777 4.41696 34.8383 3.74536C34.3891 3.07377 33.1001 2.04399 32.2407 1.6858C30.9321 1.12614 30.6099 1.09256 26.1178 1.03659C22.0163 0.980624 21.86 0.991818 21.694 1.1933Z" fill="#7836BA"/>
<path d="M41.4202 1.27165C41.303 1.41716 41.1468 1.73057 41.0686 1.96563C40.9905 2.21189 40.7659 2.80513 40.5706 3.29763C40.3655 3.79014 40.0628 4.57367 39.887 5.03259C39.7113 5.49152 39.4281 6.23027 39.2425 6.678C39.057 7.12574 38.9105 7.50631 38.9105 7.53989C38.9105 7.56227 38.7542 7.96523 38.5687 8.43535C38.3832 8.89427 38.0414 9.78974 37.7972 10.4278C37.5629 11.0658 37.2601 11.8605 37.1234 12.1963C36.9965 12.5321 36.7426 13.1925 36.5668 13.6514C36.2055 14.5917 35.4047 16.6624 35.0531 17.5131C34.6528 18.4981 34.5649 18.9011 34.6723 19.1137C34.809 19.3488 35.3949 19.3712 35.5024 19.1361C35.6293 18.8675 36.5961 16.3826 38.6468 11.021C39.0472 9.96883 39.4964 8.81592 39.6429 8.44654C39.9847 7.57347 40.0237 7.47273 40.9515 5.03259C41.3909 3.89088 41.8206 2.78274 41.9085 2.57007L42.0843 2.17831L45.6096 2.11115L45.8439 2.70439C45.9611 3.02899 46.215 3.6782 46.4103 4.13713C46.5959 4.59605 46.8693 5.30123 47.0158 5.70419C47.299 6.47653 47.5431 7.11454 48.0021 8.24506C48.1584 8.62564 48.2853 8.97263 48.2853 9.00621C48.2853 9.03979 48.383 9.30843 48.4904 9.59945C48.6076 9.89048 48.9103 10.6516 49.1642 11.3008C49.4181 11.95 49.7892 12.9015 49.9943 13.4276C50.1993 13.9536 50.4435 14.5917 50.5411 14.8379C50.6388 15.0954 50.8048 15.5431 50.9024 15.8453C51.1173 16.4721 51.4981 16.8079 51.7716 16.6064C52.0938 16.3714 52.0255 15.9348 51.4298 14.4126C51.1075 13.5955 50.6974 12.5433 50.5314 12.0844C50.3556 11.6254 50.0236 10.7636 49.7989 10.1815C48.9689 8.07716 48.8712 7.81972 48.8712 7.77495C48.8712 7.73017 48.6173 7.09216 47.8459 5.14452C47.6115 4.56247 47.2013 3.49911 46.9279 2.79394C46.1955 0.846305 46.4592 1.00301 43.842 1.00301C41.6448 1.00301 41.635 1.00301 41.4202 1.27165Z" fill="#7836BA"/>
<path d="M9.90715 5.13333C9.84856 5.26765 9.8095 6.39817 9.8095 8.04358C9.8095 10.327 9.82903 10.7524 9.96574 10.8979C10.0927 11.0434 10.3954 11.077 11.7431 11.077C13.8231 11.077 14.4481 10.8979 15.1317 10.1255C15.6688 9.49871 15.8152 9.02859 15.8152 7.93165C15.8055 7.09216 15.7762 6.91306 15.532 6.44294C15.3856 6.15192 15.0828 5.77135 14.868 5.58106C14.1942 5.03259 13.6864 4.92066 11.7528 4.92066C10.1318 4.92066 10.0048 4.93185 9.90715 5.13333ZM13.7352 6.17431C14.3211 6.37579 14.7606 6.93545 14.8387 7.59585C14.9559 8.58086 14.5848 9.42036 13.8914 9.72258C13.6473 9.82332 11.0106 9.92406 10.9325 9.82332C10.8642 9.74496 10.7958 6.54368 10.8544 6.28624C10.9032 6.05118 10.9521 6.03999 12.1337 6.03999C12.7977 6.03999 13.5204 6.09595 13.7352 6.17431Z" fill="#7836BA"/>
<path d="M25.9225 5.08856C25.7564 5.32362 25.7662 10.6964 25.942 10.9315C26.1178 11.1777 29.4868 11.0882 30.1314 10.8083C30.8247 10.5173 31.3423 9.94644 31.5766 9.21888C32.1626 7.42795 31.4302 5.58106 29.9458 5.09975C29.1646 4.8535 26.108 4.84231 25.9225 5.08856ZM29.7505 6.21908C30.2583 6.40937 30.5317 6.72278 30.6978 7.26005C30.854 7.80853 30.8247 8.37938 30.6099 8.92785C30.3169 9.65542 29.9068 9.82332 28.1978 9.87928L26.8209 9.93525L26.7818 9.63303C26.7721 9.47632 26.7623 8.60325 26.7818 7.6854L26.8111 6.03999H28.0611C28.9302 6.03999 29.438 6.09595 29.7505 6.21908Z" fill="#7836BA"/>
<path d="M43.4807 6.00641C43.3928 6.11834 43.2366 6.48772 43.1292 6.82352C43.0217 7.15931 42.5725 8.44654 42.1331 9.66661C41.469 11.5359 41.3518 11.95 41.4397 12.1627C41.4983 12.297 41.6448 12.4425 41.762 12.4761C41.8889 12.5097 42.885 12.5209 43.9885 12.5097L45.9807 12.4761L46.1271 12.1739C46.2639 11.9053 46.2541 11.8269 46.0685 11.2784C45.9514 10.9538 45.5607 9.8569 45.2092 8.83831C44.8479 7.81972 44.5158 6.90187 44.467 6.80113C44.4182 6.6892 44.3791 6.53249 44.3791 6.45414C44.3791 6.23027 44.008 5.81612 43.803 5.81612C43.7053 5.81612 43.5588 5.90567 43.4807 6.00641ZM44.926 11.0993C44.9748 11.2896 44.8869 11.3008 43.803 11.3008H42.6214L42.8264 10.7076C42.9338 10.3942 43.2073 9.63303 43.4221 9.02859L43.8225 7.92046L44.3498 9.40916C44.633 10.2375 44.8967 10.9874 44.926 11.0993Z" fill="#7836BA"/>
<path d="M10.0048 13.8977C9.83879 14.1103 9.8095 14.2894 9.8095 15.1513C9.81926 16.2818 9.91692 16.5617 10.3271 16.5617C10.6981 16.5617 10.8837 16.1811 10.8837 15.42V14.7707H12.3973L13.3251 16.349C13.8329 17.2109 14.3602 18.1063 14.4969 18.319C14.6336 18.5429 14.8094 18.8563 14.8973 19.013C15.0047 19.2145 15.1512 19.3152 15.3758 19.3376C15.9324 19.4048 16.0301 18.8675 15.5809 18.1735C15.4344 17.9273 14.8192 16.8863 14.2137 15.8677C13.618 14.8379 13.0321 13.9201 12.9149 13.8305C12.7391 13.685 12.4169 13.6514 11.4501 13.6514C10.2978 13.6514 10.1903 13.6738 10.0048 13.8977Z" fill="#7836BA"/>
<path d="M40.3167 15.0954C40.1702 15.2856 39.1253 18.0728 38.9203 18.8115C38.8714 18.9682 38.764 19.2481 38.6761 19.4495C38.3734 20.1211 38.5199 20.5913 39.0277 20.5913C39.3499 20.5913 39.3304 20.6472 40.5218 17.2892C40.7269 16.7296 40.9515 16.2259 41.0296 16.1587C41.1272 16.0692 42.0061 16.0244 43.8713 16.0132L46.5861 15.9908L46.801 16.3378C47.0549 16.7296 47.299 16.7632 47.5529 16.4497C47.7091 16.2483 47.7189 16.1699 47.6115 15.7669C47.3674 14.8379 47.5431 14.8827 43.7932 14.8827C40.6487 14.8827 40.4632 14.8939 40.3167 15.0954Z" fill="#7836BA"/>
<path d="M5.21974 17.5243C4.92678 17.737 4.36038 18.1175 3.96977 18.3638C3.10064 18.9235 3.05181 19.069 3.43267 20.1099L3.71586 20.8823L3.43267 21.3748C3.28619 21.6546 3.07135 22.0912 2.96393 22.3486C2.75885 22.8523 2.75885 22.8523 1.70418 22.9978C1.0206 23.0874 1.00107 23.1321 1.00107 25.1133C0.991308 27.2177 1.03037 27.3072 1.88973 27.3184C2.19246 27.3184 2.51472 27.3632 2.61237 27.3968C2.75885 27.4639 3.10064 28.1131 3.56938 29.1765C3.65727 29.3668 3.62798 29.5683 3.41314 30.2063C3.07135 31.2025 3.12994 31.3816 3.91117 31.8405C4.23343 32.0196 4.55569 32.2211 4.63381 32.2994C5.06349 32.68 5.94238 33.1389 6.13769 33.083C6.25488 33.0494 6.53807 32.7248 6.76268 32.3442L7.18259 31.6726H9.18451L9.59466 32.3442C10.1025 33.1613 10.3173 33.2509 10.9032 32.8703C12.9833 31.5047 13.2274 31.3144 13.2274 31.057C13.2274 30.9786 13.0907 30.5869 12.9344 30.1727L12.6317 29.4116L12.827 29.0646C12.9344 28.8631 13.159 28.4265 13.3153 28.0796C13.6278 27.408 13.7938 27.3072 14.6043 27.3072C14.8582 27.3072 15.0535 27.2289 15.1805 27.0834C15.3563 26.8819 15.3758 26.714 15.3758 25.1917C15.3758 24.2738 15.3465 23.4455 15.3172 23.3448C15.2586 23.1545 14.8485 23.009 14.0868 22.8859C13.6473 22.8187 13.6082 22.7851 13.3641 22.2367C13.2274 21.9121 13.0028 21.4867 12.8661 21.274L12.6122 20.9047L12.9344 20.0764C13.2372 19.2816 13.2469 19.2369 13.0907 18.957C12.993 18.8003 12.8563 18.6436 12.7684 18.61C12.6805 18.5653 12.1337 18.2183 11.5477 17.8265C10.9618 17.4347 10.3954 17.1213 10.288 17.1213C10.1611 17.1213 9.93645 17.3788 9.64348 17.8377L9.19427 18.5541H7.21189L6.70409 17.8377C6.1084 16.9982 5.99121 16.9758 5.21974 17.5243ZM6.333 19.1473L6.80174 19.8301L7.39743 19.7518C8.14937 19.6398 8.15914 19.6398 8.94037 19.7406L9.58489 19.8301L10.0243 19.1809C10.288 18.7891 10.5224 18.5317 10.62 18.5541C10.7665 18.5877 11.8309 19.2816 11.9774 19.4495C12.0262 19.5055 11.9481 19.8525 11.8114 20.2443C11.538 21.0166 11.5575 21.2628 11.9091 21.7106C12.163 22.0128 12.7391 23.2441 12.7391 23.4679C12.7391 23.6806 13.1493 23.9492 13.4813 23.9492C13.6473 23.9492 13.9305 23.9828 14.0965 24.0164L14.3992 24.0836V26.1543L14.0965 26.2327C13.9305 26.2662 13.618 26.2998 13.4129 26.2998C13.0712 26.2998 12.7391 26.5237 12.7391 26.7587C12.7391 27.0498 12.0067 28.5385 11.7431 28.7623C11.5477 28.9302 11.577 29.4228 11.8114 30.0384C12.0165 30.5757 12.0458 30.7212 11.9384 30.8331C11.6747 31.1241 10.4638 31.8069 10.4052 31.7062C10.122 31.2249 9.67278 30.5533 9.62395 30.5421C9.59466 30.5421 8.95014 30.5309 8.1982 30.5197C6.67479 30.4973 6.74315 30.4637 6.09863 31.4375L5.85449 31.8069L5.3174 31.4599C5.02443 31.2584 4.68264 31.0458 4.56546 30.9786C4.28226 30.8219 4.28226 30.71 4.58499 29.9712C4.7217 29.6466 4.82912 29.3108 4.82912 29.2325C4.82912 29.1541 4.66311 28.8295 4.44827 28.5049C4.06742 27.9005 3.89164 27.5535 3.60844 26.8371C3.44243 26.3894 3.39361 26.367 2.53425 26.2551C2.27058 26.2103 2.01668 26.1431 1.96785 26.0872C1.92879 26.0424 1.89949 25.5723 1.91902 25.0574L1.94832 24.1171L2.33894 24.0388C2.55378 23.994 2.89557 23.9268 3.10064 23.8933C3.4229 23.8373 3.50102 23.759 3.61821 23.412C3.85258 22.7516 4.15531 22.1359 4.50686 21.6434C4.68264 21.386 4.82912 21.095 4.82912 20.9942C4.82912 20.8935 4.71194 20.5465 4.57522 20.2331C4.40921 19.8525 4.35062 19.5951 4.39944 19.5055C4.48733 19.36 5.68848 18.4757 5.81543 18.4645C5.84473 18.4645 6.0791 18.7779 6.333 19.1473Z" fill="#7836BA"/>
<path d="M7.38767 21.9344C6.72362 22.1135 6.00098 22.8075 5.58106 23.6694C5.27833 24.3074 5.26857 25.9193 5.58106 26.5797C6.08886 27.6654 6.98728 28.3258 8.07125 28.4042C8.64741 28.4489 8.80366 28.4042 9.34075 28.1243C10.7567 27.3632 11.3622 25.8185 10.9325 24.1171C10.786 23.5687 10.6591 23.3336 10.2099 22.8299C9.41888 21.9456 8.46186 21.6434 7.38767 21.9344ZM8.84272 23.065C9.26263 23.2329 9.68254 23.6694 9.87785 24.1507C10.0829 24.632 10.0732 25.7066 9.86809 26.1543C9.51653 26.9378 8.74506 27.3744 7.915 27.2625C7.34861 27.1953 7.05564 26.9826 6.6162 26.311C6.34277 25.9081 6.29394 25.7402 6.29394 25.2365C6.29394 24.2179 6.64549 23.5687 7.41696 23.1545C7.86617 22.9195 8.36421 22.8859 8.84272 23.065Z" fill="#7836BA"/>
<path d="M45.7951 17.5579C45.4729 17.7929 44.9358 18.1511 44.594 18.3526C44.2522 18.5541 43.9104 18.8339 43.8323 18.9682C43.6956 19.2033 43.7053 19.2928 43.9787 19.9756C44.1448 20.3898 44.2815 20.7815 44.2815 20.8375C44.2815 20.8935 44.1252 21.2069 43.9397 21.5315C43.7541 21.8561 43.5491 22.2814 43.4905 22.4717C43.4026 22.7739 43.3342 22.8187 42.885 22.8859C41.4983 23.0762 41.5472 22.9866 41.5472 25.1133C41.5472 26.6692 41.5667 26.8371 41.7425 27.061C41.8889 27.2401 42.055 27.3072 42.3675 27.3072C43.0608 27.3072 43.3928 27.4192 43.4612 27.6878C43.5002 27.8109 43.6956 28.2475 43.9006 28.6392C44.1155 29.0198 44.2815 29.378 44.2815 29.4339C44.2815 29.4787 44.1448 29.8593 43.9787 30.2734C43.7053 30.9562 43.6956 31.0458 43.8323 31.2808C43.9104 31.4152 44.2034 31.6726 44.4963 31.8405C44.7795 32.0084 45.3264 32.3666 45.717 32.6352C46.7131 33.3292 46.7717 33.318 47.4064 32.2547L47.7482 31.6838H49.7989L50.131 32.2658C50.5216 32.9374 50.6974 33.1277 50.9317 33.1277C51.0196 33.1277 51.586 32.8031 52.1817 32.4002C52.7872 31.9972 53.3145 31.6726 53.3536 31.6726C53.5 31.6726 53.7539 31.2584 53.7539 31.0122C53.7539 30.8779 53.6465 30.4861 53.5098 30.1503C53.3731 29.8145 53.2657 29.4899 53.2657 29.4228C53.2657 29.3668 53.4317 28.9974 53.6465 28.6168C53.8516 28.2363 54.0567 27.8109 54.086 27.6878C54.1543 27.4192 54.4864 27.3072 55.1602 27.3072C55.4434 27.3072 55.6387 27.2289 55.7852 27.0834C55.9902 26.8595 56 26.7588 56 25.1357C56 23.1097 56.0098 23.1321 54.9258 22.953C54.5254 22.8971 54.1836 22.7963 54.1641 22.7404C54.1543 22.6956 53.9395 22.2479 53.7051 21.7665C53.461 21.2852 53.2657 20.8487 53.2657 20.8039C53.2657 20.748 53.3829 20.4234 53.5196 20.0876C53.9297 19.0578 53.9004 19.0018 52.3868 17.9944C51.6641 17.5131 50.9903 17.1213 50.8829 17.1437C50.7755 17.1661 50.4923 17.4907 50.2482 17.8601L49.7989 18.5429H48.8029C47.7091 18.5541 47.8361 18.6212 47.133 17.5915C46.7228 17.0094 46.5568 16.9982 45.7951 17.5579ZM47.1818 19.5055C47.4162 19.8301 47.6408 19.8637 48.3439 19.707C48.5685 19.6622 49.047 19.6622 49.3986 19.7294C50.0236 19.8301 50.0724 19.8189 50.3068 19.5727C50.4435 19.4272 50.6583 19.1137 50.795 18.8787C51.0587 18.3974 51.2149 18.3974 51.7716 18.8675C51.9376 19.013 52.1036 19.1361 52.1426 19.1361C52.1719 19.1361 52.2989 19.2145 52.4356 19.3152L52.6602 19.4831L52.3868 20.2555C52.0841 21.1061 52.0548 20.9494 52.7383 22.0576C52.9044 22.3262 53.1387 22.8411 53.2559 23.1881C53.5 23.8821 53.4317 23.8373 54.5645 24.0052L55.0235 24.0724V25.0798C55.0235 26.0536 55.0137 26.0872 54.7696 26.1879C54.6328 26.2551 54.3496 26.2998 54.1348 26.2998C53.6954 26.2998 53.3633 26.4565 53.3633 26.6692C53.3633 26.9378 52.7969 28.1691 52.4942 28.5721C52.1036 29.0758 52.0938 29.2101 52.4063 30.072L52.6602 30.7771L52.3477 30.9898C51.918 31.2808 51.1173 31.7845 51.0685 31.7845C51.0489 31.7845 50.9415 31.6166 50.8341 31.4152C50.7267 31.2249 50.5314 30.9338 50.4044 30.7659C50.17 30.4861 50.1505 30.4861 48.8029 30.5085C48.0509 30.5197 47.3674 30.5757 47.2795 30.6204C47.2013 30.6764 46.9963 30.9674 46.8205 31.2585C46.6447 31.5495 46.4787 31.7845 46.4396 31.7621C46.0197 31.5383 45.258 31.0682 45.0822 30.9115L44.8674 30.7212L45.1018 30.1615C45.4924 29.2325 45.4924 29.1765 45.092 28.6168C44.7112 28.1019 44.4963 27.6654 44.2815 26.9938C44.0959 26.4565 43.9299 26.2998 43.51 26.2998C43.3049 26.2998 42.9924 26.2662 42.8264 26.2327L42.5237 26.1655V24.0724L43.0901 24.0052C44.0373 23.8821 44.0764 23.8485 44.3889 22.9978C44.5451 22.5613 44.8479 21.968 45.0627 21.6658C45.4924 21.0614 45.5022 21.0278 45.1018 20.1211C44.9748 19.8301 44.8674 19.5615 44.8674 19.5391C44.8674 19.5055 45.2092 19.2481 45.6291 18.9682L46.381 18.4533L46.674 18.8339C46.84 19.0354 47.0646 19.3376 47.1818 19.5055Z" fill="#7836BA"/>
<path d="M48.0216 21.9233C47.4162 22.1023 46.6545 22.7404 46.3322 23.3336C46.0685 23.8261 45.8439 24.6208 45.8439 25.0686C45.8439 25.9528 46.2736 27.0386 46.84 27.5759C47.5041 28.2139 47.8849 28.3706 48.7736 28.3706C49.5157 28.3706 49.6622 28.337 50.131 28.0348C50.6974 27.6766 51.2247 27.0162 51.4591 26.3782C51.6837 25.7402 51.6544 24.397 51.3907 23.759C51.127 23.1209 50.5802 22.4717 50.0431 22.1583C49.5939 21.8897 48.5294 21.7777 48.0216 21.9233ZM49.4669 23.0985C50.2872 23.4903 50.629 24.0947 50.629 25.1581C50.629 25.9193 50.3067 26.6132 49.7794 26.9938C49.4865 27.1953 49.2716 27.2513 48.7638 27.2513C48.2169 27.2513 48.0607 27.2065 47.7091 26.9266C46.5568 26.0088 46.6545 23.9604 47.8752 23.2217C48.4025 22.9083 48.9884 22.8635 49.4669 23.0985Z" fill="#7836BA"/>
<path d="M26.5963 17.3452C26.44 17.4459 26.3326 17.9384 26.108 19.5839L26.0006 20.4345L25.3658 20.6808C24.7994 20.9159 23.9108 21.3412 23.4713 21.6098C23.3151 21.6994 23.2077 21.6322 22.1628 20.7368C21.2253 19.9309 21.1667 19.8973 20.9421 20.0316C20.571 20.2555 18.3054 22.9754 18.3054 23.1881C18.3054 23.3 18.6374 23.8933 19.0378 24.4977C19.4382 25.1021 19.7702 25.6506 19.7702 25.729C19.7702 25.7961 19.6433 26.1543 19.4773 26.5013C19.321 26.8483 19.0867 27.4863 18.9499 27.9117C18.823 28.337 18.657 28.7176 18.5886 28.7623C18.4519 28.8407 17.5535 29.031 16.7332 29.1541C15.9324 29.266 15.9129 29.2996 15.8836 31.1689C15.8348 33.1949 15.9031 33.7546 16.1863 33.9336C16.3914 34.068 16.8601 34.1575 18.0418 34.3142C18.3542 34.359 18.6374 34.4485 18.6765 34.5157C18.7156 34.5829 18.8425 34.9522 18.9597 35.344C19.0769 35.7246 19.3308 36.3738 19.5163 36.7767L19.8581 37.5155L19.0769 38.6908C18.657 39.34 18.3054 39.9668 18.3054 40.1011C18.3054 40.3474 20.8347 43.3136 21.0593 43.3136C21.2155 43.3136 21.4401 43.1457 22.4948 42.2279L23.2956 41.5451L24.194 42.0152C24.692 42.2838 25.2975 42.5637 25.5514 42.642L26.0103 42.7763L26.108 43.5823C26.3424 45.306 26.4107 45.6866 26.5182 45.8433C26.606 45.9664 27.0064 46 28.4615 46C30.0728 46 30.3071 45.9776 30.4439 45.7985C30.5317 45.6978 30.6489 45.1941 30.7173 44.6568C30.9712 42.6084 30.854 42.8659 31.6841 42.5301C32.0844 42.3622 32.6899 42.0712 33.0219 41.8809L33.6372 41.5339L34.2426 42.0488C34.5844 42.3398 35.0336 42.7316 35.2387 42.9442C35.4535 43.1457 35.7172 43.3136 35.8344 43.3136C36.1273 43.3136 38.6175 40.4146 38.6175 40.0788C38.6175 39.8661 38.2269 39.1945 37.309 37.8513C37.1234 37.5827 37.1234 37.5827 37.4652 36.7767C37.6605 36.3402 37.8949 35.6798 37.9925 35.3104C38.0902 34.941 38.1976 34.594 38.2367 34.5381C38.3148 34.4373 38.8617 34.3254 40.1214 34.1351C40.5999 34.068 40.844 33.9784 40.9319 33.8329C41.1272 33.5419 41.0686 29.4675 40.8733 29.3332C40.7562 29.2437 40.3948 29.1765 39.4964 29.0422C39.4183 29.031 39.1546 28.975 38.9105 28.9302C38.6664 28.8743 38.432 28.8295 38.3832 28.8295C38.266 28.8183 38.1878 28.628 37.8754 27.643C37.7289 27.1841 37.5043 26.602 37.3871 26.3446C37.2601 26.0983 37.1527 25.8409 37.1527 25.7849C37.1527 25.729 37.4847 25.1805 37.8851 24.5649C38.3539 23.8485 38.6175 23.3448 38.6175 23.1657C38.6175 22.9418 38.3148 22.5277 37.309 21.3972C36.5961 20.5801 35.9418 19.9197 35.8734 19.9197C35.7953 19.9197 35.268 20.3226 34.7016 20.8151L33.6567 21.7106L32.9438 21.33C32.5434 21.1173 31.9282 20.8375 31.5766 20.692L30.9321 20.4345L30.7661 19.0354C30.5415 17.1325 30.6685 17.2333 28.4712 17.2333C27.524 17.2333 26.6842 17.2892 26.5963 17.3452ZM29.8384 19.6286C30.0923 21.4084 30.063 21.3524 30.5415 21.4979C31.1274 21.677 31.479 21.8225 31.9477 22.0576C32.1821 22.1807 32.3872 22.2702 32.4067 22.2702C32.436 22.2702 32.6801 22.4158 32.9536 22.606C33.227 22.7851 33.5493 22.9418 33.6665 22.9418C33.7836 22.9418 34.2914 22.5837 34.7895 22.1583C35.2875 21.7218 35.7367 21.3748 35.7758 21.3748C35.8637 21.3748 37.3773 23.1097 37.4261 23.2553C37.4359 23.3112 37.1429 23.8149 36.7621 24.397C36.391 24.9678 36.0785 25.5387 36.0785 25.6506C36.0785 25.7625 36.2348 26.1767 36.4203 26.5685C36.6058 26.9602 36.9086 27.7997 37.0941 28.4377C37.3968 29.4787 37.4652 29.6242 37.7582 29.7921C37.9339 29.9041 38.2367 29.9936 38.4222 29.9936C38.6078 30.0048 39.0472 30.0608 39.3988 30.1391L40.0335 30.2734L40.0628 31.6278C40.0921 33.2173 40.2581 33.027 38.6175 33.2509C38.0511 33.318 37.5433 33.4299 37.4847 33.4859C37.4164 33.5419 37.3383 33.7657 37.2992 34.0008C37.1918 34.6836 36.9574 35.3776 36.5082 36.4074C36.0297 37.4931 35.9906 37.7617 36.2543 38.0975C36.3519 38.2319 36.6742 38.7132 36.9769 39.1833L37.5238 40.034L36.6742 41.0078L35.8246 41.9704L35.4926 41.7018C35.307 41.5451 35.1117 41.3772 35.0531 41.3324C34.6528 40.9518 33.7739 40.2914 33.686 40.2914C33.6176 40.2914 33.1977 40.5153 32.7485 40.7839C32.2993 41.0526 31.5474 41.4108 31.0786 41.5787C30.6099 41.7466 30.19 41.9368 30.1411 42.0152C30.0532 42.1383 29.731 44.1867 29.731 44.6344C29.731 44.8807 29.7017 44.8807 28.5201 44.8807C27.6021 44.8807 27.2994 44.8471 27.2603 44.7352C27.231 44.6456 27.1822 44.2315 27.1431 43.8061C27.1138 43.3808 27.0162 42.7763 26.9478 42.4629L26.8111 41.9033L26.0006 41.6346C25.1901 41.3772 24.2526 40.8959 23.7545 40.5041C23.3151 40.1459 23.2467 40.1795 21.9675 41.2652C21.5964 41.5898 21.2351 41.8585 21.1862 41.8585C21.1276 41.8585 20.7272 41.4443 20.278 40.9294L19.4773 40.0116L19.8874 39.34C20.112 38.9706 20.3269 38.646 20.3562 38.6124C20.5612 38.411 20.8444 37.8065 20.8444 37.5715C20.8444 37.4148 20.6687 36.9223 20.4636 36.4633C20.1316 35.747 19.9362 35.1537 19.5945 33.8553C19.4968 33.4747 19.3992 33.4411 17.9734 33.1949C17.4168 33.1053 16.9773 32.971 16.9285 32.8815C16.8797 32.8031 16.8504 32.1763 16.8601 31.5047L16.8894 30.2734L17.8172 30.1167C18.325 30.0384 18.9109 29.9153 19.116 29.8369C19.4968 29.7138 19.4968 29.7026 19.8581 28.4713C20.0534 27.7885 20.3757 26.9155 20.5808 26.5349C20.7761 26.1543 20.9421 25.7737 20.9421 25.6842C20.9421 25.6058 20.737 25.2253 20.4831 24.8335C20.2194 24.4529 19.8874 23.938 19.7409 23.6918L19.4577 23.2441L20.2683 22.3038C20.7175 21.8001 21.1276 21.3748 21.1765 21.3748C21.2253 21.3748 21.6745 21.7218 22.1725 22.1583C22.6803 22.5837 23.1686 22.9418 23.2663 22.9418C23.3737 22.9418 23.8229 22.718 24.2721 22.4493C24.7213 22.1807 25.4733 21.8225 25.9322 21.6658C26.899 21.33 26.9283 21.2852 27.0943 19.9532C27.1529 19.4719 27.2115 18.9794 27.2408 18.8563C27.2603 18.7332 27.2799 18.5653 27.2799 18.4869C27.2896 18.375 27.5631 18.3526 28.481 18.375L29.6724 18.4086L29.8384 19.6286Z" fill="#7836BA"/>
<path d="M27.2408 24.9678C26.0982 25.2812 24.6139 26.2886 24.0475 27.1169C23.8717 27.3744 23.7057 27.6094 23.6764 27.643C23.5104 27.7997 22.9831 29.0198 22.8073 29.6466C22.5632 30.5197 22.5241 32.4002 22.7389 33.3292C22.9049 34.0456 23.3834 35.1985 23.6959 35.6126C23.8229 35.7805 23.9987 36.0492 24.0963 36.2059C24.4186 36.7208 25.8736 37.8401 26.5279 38.064C28.0709 38.6012 29.8189 38.4557 31.1567 37.6834C31.4302 37.5267 31.7036 37.314 31.772 37.2245C31.8501 37.1237 31.9575 37.0454 32.0259 37.0454C32.27 37.0454 33.4028 35.5231 33.7348 34.7396C34.0961 33.8777 34.2035 33.4859 34.3305 32.5121C34.4477 31.6054 34.3696 31.2473 34.0571 31.1577C33.6176 31.0234 33.5004 31.2249 33.3735 32.2882C33.0903 34.7284 31.4888 36.7432 29.4673 37.1685C28.7349 37.3252 27.358 37.2245 26.8013 36.9782C24.0377 35.747 22.7682 32.2323 24.0084 29.2437C24.8873 27.1281 26.9088 25.7849 28.8814 26.0088C29.6919 26.0983 30.0435 26.2215 30.8833 26.714C31.6255 27.1505 31.7817 27.1505 32.0161 26.714C32.2407 26.311 31.5669 25.6842 30.4146 25.2253C29.8384 24.9902 29.4575 24.9119 28.6568 24.8895C28.0904 24.8671 27.4556 24.9007 27.2408 24.9678Z" fill="#7836BA"/>
<path d="M30.9321 29.96C29.4868 31.6166 28.2271 33.027 28.1392 33.1165C27.983 33.262 27.8365 33.1277 26.567 31.695C25.1998 30.1391 24.9362 29.9376 24.6725 30.2399C24.3405 30.6204 24.526 30.9115 26.1959 32.8255C27.1627 33.9225 27.9146 34.6948 28.022 34.6948C28.1392 34.6948 29.3697 33.3628 31.1763 31.292C33.6664 28.4489 34.1547 27.8445 34.1547 27.5871C34.1547 27.2736 33.9106 26.9714 33.6762 26.9714C33.6079 26.9714 32.3774 28.3146 30.9321 29.96Z" fill="#7836BA"/>
<path d="M5.76661 1.1821C5.62989 1.33881 5.61036 2.1895 5.61036 8.83831V16.3266L5.8252 16.4945C6.1084 16.7184 6.15722 16.7184 6.39159 16.4497C6.5869 16.2259 6.5869 16.0804 6.5869 9.23007C6.5869 3.71178 6.6162 2.23427 6.71385 2.22308C6.77244 2.22308 8.41304 2.21188 10.3466 2.22308C14.5848 2.22308 15.2 2.30143 16.5379 3.04019C18.1687 3.94684 19.0769 5.62584 19.1355 7.81972C19.1843 9.99121 18.4226 11.6366 16.8699 12.6776C15.9617 13.282 15.9227 13.1365 18.0222 16.6176C18.2468 16.987 18.7156 17.7594 19.0574 18.319C19.5847 19.2033 19.7214 19.36 19.946 19.36C20.2683 19.36 20.4538 19.1809 20.4538 18.8563C20.4538 18.7332 20.0534 17.972 19.5652 17.1773C18.1394 14.8603 17.5047 13.7522 17.5437 13.6626C17.5632 13.6066 17.8074 13.3604 18.0808 13.1029C19.448 11.8717 20.1609 10.1143 20.1609 7.94284C20.1609 6.14073 19.5847 4.5177 18.53 3.33121C17.8464 2.54768 17.739 2.45814 16.8797 1.97683C15.4246 1.14852 14.3602 1.00301 9.59466 1.00301C6.38183 1.00301 5.89356 1.0254 5.76661 1.1821Z" stroke="#7836BA"/>
<path d="M21.694 1.1933C21.5378 1.39478 21.528 2.01041 21.528 9.94644C21.528 15.6102 21.5573 18.5541 21.6257 18.6996C21.7429 18.9458 22.0944 18.9794 22.3385 18.7667C22.4948 18.6436 22.5046 17.9832 22.5241 10.4166L22.5534 2.1895L26.2154 2.22308C28.2271 2.23427 30.1509 2.29024 30.4829 2.3574C31.4399 2.5253 32.2895 2.87229 32.9145 3.34241C33.686 3.93565 33.7348 3.98042 34.2035 4.70799C34.7504 5.54748 35.0141 6.42056 35.0727 7.66301C35.2289 10.8307 33.4711 13.1029 30.4439 13.6402C30.063 13.7074 28.9497 13.7634 27.9732 13.7634C26.9381 13.7634 26.1275 13.8081 26.0103 13.8753C25.8443 13.9872 25.8248 14.1215 25.8248 15.2297C25.8248 16.405 25.8346 16.4609 26.0592 16.5729C26.2252 16.6624 26.3424 16.6624 26.4986 16.5729C26.7135 16.4385 26.7428 16.3042 26.7428 15.4423L26.7525 14.9386L28.7056 14.8715C30.2485 14.8155 30.8247 14.7484 31.4399 14.5581C33.2563 13.9984 34.7504 12.756 35.4145 11.2449C35.8832 10.1927 36.0199 9.47633 36.0297 8.11074C36.0297 7.32722 35.9711 6.53249 35.9027 6.20789C35.7172 5.44674 35.2777 4.41696 34.8383 3.74536C34.3891 3.07377 33.1001 2.04399 32.2407 1.6858C30.9321 1.12614 30.6099 1.09256 26.1178 1.03659C22.0163 0.980624 21.86 0.991818 21.694 1.1933Z" stroke="#7836BA"/>
<path d="M41.4202 1.27165C41.303 1.41716 41.1468 1.73057 41.0686 1.96563C40.9905 2.21189 40.7659 2.80513 40.5706 3.29763C40.3655 3.79014 40.0628 4.57367 39.887 5.03259C39.7113 5.49152 39.4281 6.23027 39.2425 6.678C39.057 7.12574 38.9105 7.50631 38.9105 7.53989C38.9105 7.56227 38.7542 7.96523 38.5687 8.43535C38.3832 8.89427 38.0414 9.78974 37.7972 10.4278C37.5629 11.0658 37.2601 11.8605 37.1234 12.1963C36.9965 12.5321 36.7426 13.1925 36.5668 13.6514C36.2055 14.5917 35.4047 16.6624 35.0531 17.5131C34.6528 18.4981 34.5649 18.9011 34.6723 19.1137C34.809 19.3488 35.3949 19.3712 35.5024 19.1361C35.6293 18.8675 36.5961 16.3826 38.6468 11.021C39.0472 9.96883 39.4964 8.81592 39.6429 8.44654C39.9847 7.57347 40.0237 7.47273 40.9515 5.03259C41.3909 3.89088 41.8206 2.78274 41.9085 2.57007L42.0843 2.17831L45.6096 2.11115L45.8439 2.70439C45.9611 3.02899 46.215 3.6782 46.4103 4.13713C46.5959 4.59605 46.8693 5.30123 47.0158 5.70419C47.299 6.47653 47.5431 7.11454 48.0021 8.24506C48.1584 8.62564 48.2853 8.97263 48.2853 9.00621C48.2853 9.03979 48.383 9.30843 48.4904 9.59945C48.6076 9.89048 48.9103 10.6516 49.1642 11.3008C49.4181 11.95 49.7892 12.9015 49.9943 13.4276C50.1993 13.9536 50.4435 14.5917 50.5411 14.8379C50.6388 15.0954 50.8048 15.5431 50.9024 15.8453C51.1173 16.4721 51.4981 16.8079 51.7716 16.6064C52.0938 16.3714 52.0255 15.9348 51.4298 14.4126C51.1075 13.5955 50.6974 12.5433 50.5314 12.0844C50.3556 11.6254 50.0236 10.7636 49.7989 10.1815C48.9689 8.07716 48.8712 7.81972 48.8712 7.77495C48.8712 7.73017 48.6173 7.09216 47.8459 5.14452C47.6115 4.56247 47.2013 3.49911 46.9279 2.79394C46.1955 0.846305 46.4592 1.00301 43.842 1.00301C41.6448 1.00301 41.635 1.00301 41.4202 1.27165Z" stroke="#7836BA"/>
<path d="M9.90715 5.13333C9.84856 5.26765 9.8095 6.39817 9.8095 8.04358C9.8095 10.327 9.82903 10.7524 9.96574 10.8979C10.0927 11.0434 10.3954 11.077 11.7431 11.077C13.8231 11.077 14.4481 10.8979 15.1317 10.1255C15.6688 9.49871 15.8152 9.02859 15.8152 7.93165C15.8055 7.09216 15.7762 6.91306 15.532 6.44294C15.3856 6.15192 15.0828 5.77135 14.868 5.58106C14.1942 5.03259 13.6864 4.92066 11.7528 4.92066C10.1318 4.92066 10.0048 4.93185 9.90715 5.13333ZM13.7352 6.17431C14.3211 6.37579 14.7606 6.93545 14.8387 7.59585C14.9559 8.58086 14.5848 9.42036 13.8914 9.72258C13.6473 9.82332 11.0106 9.92406 10.9325 9.82332C10.8642 9.74496 10.7958 6.54368 10.8544 6.28624C10.9032 6.05118 10.9521 6.03999 12.1337 6.03999C12.7977 6.03999 13.5204 6.09595 13.7352 6.17431Z" stroke="#7836BA"/>
<path d="M25.9225 5.08856C25.7564 5.32362 25.7662 10.6964 25.942 10.9315C26.1178 11.1777 29.4868 11.0882 30.1314 10.8083C30.8247 10.5173 31.3423 9.94644 31.5766 9.21888C32.1626 7.42795 31.4302 5.58106 29.9458 5.09975C29.1646 4.8535 26.108 4.84231 25.9225 5.08856ZM29.7505 6.21908C30.2583 6.40937 30.5317 6.72278 30.6978 7.26005C30.854 7.80853 30.8247 8.37938 30.6099 8.92785C30.3169 9.65542 29.9068 9.82332 28.1978 9.87928L26.8209 9.93525L26.7818 9.63303C26.7721 9.47632 26.7623 8.60325 26.7818 7.6854L26.8111 6.03999H28.0611C28.9302 6.03999 29.438 6.09595 29.7505 6.21908Z" stroke="#7836BA"/>
<path d="M43.4807 6.00641C43.3928 6.11834 43.2366 6.48772 43.1292 6.82352C43.0217 7.15931 42.5725 8.44654 42.1331 9.66661C41.469 11.5359 41.3518 11.95 41.4397 12.1627C41.4983 12.297 41.6448 12.4425 41.762 12.4761C41.8889 12.5097 42.885 12.5209 43.9885 12.5097L45.9807 12.4761L46.1271 12.1739C46.2639 11.9053 46.2541 11.8269 46.0685 11.2784C45.9514 10.9538 45.5607 9.8569 45.2092 8.83831C44.8479 7.81972 44.5158 6.90187 44.467 6.80113C44.4182 6.6892 44.3791 6.53249 44.3791 6.45414C44.3791 6.23027 44.008 5.81612 43.803 5.81612C43.7053 5.81612 43.5588 5.90567 43.4807 6.00641ZM44.926 11.0993C44.9748 11.2896 44.8869 11.3008 43.803 11.3008H42.6214L42.8264 10.7076C42.9338 10.3942 43.2073 9.63303 43.4221 9.02859L43.8225 7.92046L44.3498 9.40916C44.633 10.2375 44.8967 10.9874 44.926 11.0993Z" stroke="#7836BA"/>
<path d="M10.0048 13.8977C9.83879 14.1103 9.8095 14.2894 9.8095 15.1513C9.81926 16.2818 9.91692 16.5617 10.3271 16.5617C10.6981 16.5617 10.8837 16.1811 10.8837 15.42V14.7707H12.3973L13.3251 16.349C13.8329 17.2109 14.3602 18.1063 14.4969 18.319C14.6336 18.5429 14.8094 18.8563 14.8973 19.013C15.0047 19.2145 15.1512 19.3152 15.3758 19.3376C15.9324 19.4048 16.0301 18.8675 15.5809 18.1735C15.4344 17.9273 14.8192 16.8863 14.2137 15.8677C13.618 14.8379 13.0321 13.9201 12.9149 13.8305C12.7391 13.685 12.4169 13.6514 11.4501 13.6514C10.2978 13.6514 10.1903 13.6738 10.0048 13.8977Z" stroke="#7836BA"/>
<path d="M40.3167 15.0954C40.1702 15.2856 39.1253 18.0728 38.9203 18.8115C38.8714 18.9682 38.764 19.2481 38.6761 19.4495C38.3734 20.1211 38.5199 20.5913 39.0277 20.5913C39.3499 20.5913 39.3304 20.6472 40.5218 17.2892C40.7269 16.7296 40.9515 16.2259 41.0296 16.1587C41.1272 16.0692 42.0061 16.0244 43.8713 16.0132L46.5861 15.9908L46.801 16.3378C47.0549 16.7296 47.299 16.7632 47.5529 16.4497C47.7091 16.2483 47.7189 16.1699 47.6115 15.7669C47.3674 14.8379 47.5431 14.8827 43.7932 14.8827C40.6487 14.8827 40.4632 14.8939 40.3167 15.0954Z" stroke="#7836BA"/>
<path d="M5.21974 17.5243C4.92678 17.737 4.36038 18.1175 3.96977 18.3638C3.10064 18.9235 3.05181 19.069 3.43267 20.1099L3.71586 20.8823L3.43267 21.3748C3.28619 21.6546 3.07135 22.0912 2.96393 22.3486C2.75885 22.8523 2.75885 22.8523 1.70418 22.9978C1.0206 23.0874 1.00107 23.1321 1.00107 25.1133C0.991308 27.2177 1.03037 27.3072 1.88973 27.3184C2.19246 27.3184 2.51472 27.3632 2.61237 27.3968C2.75885 27.4639 3.10064 28.1131 3.56938 29.1765C3.65727 29.3668 3.62798 29.5683 3.41314 30.2063C3.07135 31.2025 3.12994 31.3816 3.91117 31.8405C4.23343 32.0196 4.55569 32.2211 4.63381 32.2994C5.06349 32.68 5.94238 33.1389 6.13769 33.083C6.25488 33.0494 6.53807 32.7248 6.76268 32.3442L7.18259 31.6726H9.18451L9.59466 32.3442C10.1025 33.1613 10.3173 33.2509 10.9032 32.8703C12.9833 31.5047 13.2274 31.3144 13.2274 31.057C13.2274 30.9786 13.0907 30.5869 12.9344 30.1727L12.6317 29.4116L12.827 29.0646C12.9344 28.8631 13.159 28.4265 13.3153 28.0796C13.6278 27.408 13.7938 27.3072 14.6043 27.3072C14.8582 27.3072 15.0535 27.2289 15.1805 27.0834C15.3563 26.8819 15.3758 26.714 15.3758 25.1917C15.3758 24.2738 15.3465 23.4455 15.3172 23.3448C15.2586 23.1545 14.8485 23.009 14.0868 22.8859C13.6473 22.8187 13.6082 22.7851 13.3641 22.2367C13.2274 21.9121 13.0028 21.4867 12.8661 21.274L12.6122 20.9047L12.9344 20.0764C13.2372 19.2816 13.2469 19.2369 13.0907 18.957C12.993 18.8003 12.8563 18.6436 12.7684 18.61C12.6805 18.5653 12.1337 18.2183 11.5477 17.8265C10.9618 17.4347 10.3954 17.1213 10.288 17.1213C10.1611 17.1213 9.93645 17.3788 9.64348 17.8377L9.19427 18.5541H7.21189L6.70409 17.8377C6.1084 16.9982 5.99121 16.9758 5.21974 17.5243ZM6.333 19.1473L6.80174 19.8301L7.39743 19.7518C8.14937 19.6398 8.15914 19.6398 8.94037 19.7406L9.58489 19.8301L10.0243 19.1809C10.288 18.7891 10.5224 18.5317 10.62 18.5541C10.7665 18.5877 11.8309 19.2816 11.9774 19.4495C12.0262 19.5055 11.9481 19.8525 11.8114 20.2443C11.538 21.0166 11.5575 21.2628 11.9091 21.7106C12.163 22.0128 12.7391 23.2441 12.7391 23.4679C12.7391 23.6806 13.1493 23.9492 13.4813 23.9492C13.6473 23.9492 13.9305 23.9828 14.0965 24.0164L14.3992 24.0836V26.1543L14.0965 26.2327C13.9305 26.2662 13.618 26.2998 13.4129 26.2998C13.0712 26.2998 12.7391 26.5237 12.7391 26.7587C12.7391 27.0498 12.0067 28.5385 11.7431 28.7623C11.5477 28.9302 11.577 29.4228 11.8114 30.0384C12.0165 30.5757 12.0458 30.7212 11.9384 30.8331C11.6747 31.1241 10.4638 31.8069 10.4052 31.7062C10.122 31.2249 9.67278 30.5533 9.62395 30.5421C9.59466 30.5421 8.95014 30.5309 8.1982 30.5197C6.67479 30.4973 6.74315 30.4637 6.09863 31.4375L5.85449 31.8069L5.3174 31.4599C5.02443 31.2584 4.68264 31.0458 4.56546 30.9786C4.28226 30.8219 4.28226 30.71 4.58499 29.9712C4.7217 29.6466 4.82912 29.3108 4.82912 29.2325C4.82912 29.1541 4.66311 28.8295 4.44827 28.5049C4.06742 27.9005 3.89164 27.5535 3.60844 26.8371C3.44243 26.3894 3.39361 26.367 2.53425 26.2551C2.27058 26.2103 2.01668 26.1431 1.96785 26.0872C1.92879 26.0424 1.89949 25.5723 1.91902 25.0574L1.94832 24.1171L2.33894 24.0388C2.55378 23.994 2.89557 23.9268 3.10064 23.8933C3.4229 23.8373 3.50102 23.759 3.61821 23.412C3.85258 22.7516 4.15531 22.1359 4.50686 21.6434C4.68264 21.386 4.82912 21.095 4.82912 20.9942C4.82912 20.8935 4.71194 20.5465 4.57522 20.2331C4.40921 19.8525 4.35062 19.5951 4.39944 19.5055C4.48733 19.36 5.68848 18.4757 5.81543 18.4645C5.84473 18.4645 6.0791 18.7779 6.333 19.1473Z" stroke="#7836BA"/>
<path d="M7.38767 21.9344C6.72362 22.1135 6.00098 22.8075 5.58106 23.6694C5.27833 24.3074 5.26857 25.9193 5.58106 26.5797C6.08886 27.6654 6.98728 28.3258 8.07125 28.4042C8.64741 28.4489 8.80366 28.4042 9.34075 28.1243C10.7567 27.3632 11.3622 25.8185 10.9325 24.1171C10.786 23.5687 10.6591 23.3336 10.2099 22.8299C9.41888 21.9456 8.46186 21.6434 7.38767 21.9344ZM8.84272 23.065C9.26263 23.2329 9.68254 23.6694 9.87785 24.1507C10.0829 24.632 10.0732 25.7066 9.86809 26.1543C9.51653 26.9378 8.74506 27.3744 7.915 27.2625C7.34861 27.1953 7.05564 26.9826 6.6162 26.311C6.34277 25.9081 6.29394 25.7402 6.29394 25.2365C6.29394 24.2179 6.64549 23.5687 7.41696 23.1545C7.86617 22.9195 8.36421 22.8859 8.84272 23.065Z" stroke="#7836BA"/>
<path d="M45.7951 17.5579C45.4729 17.7929 44.9358 18.1511 44.594 18.3526C44.2522 18.5541 43.9104 18.8339 43.8323 18.9682C43.6956 19.2033 43.7053 19.2928 43.9787 19.9756C44.1448 20.3898 44.2815 20.7815 44.2815 20.8375C44.2815 20.8935 44.1252 21.2069 43.9397 21.5315C43.7541 21.8561 43.5491 22.2814 43.4905 22.4717C43.4026 22.7739 43.3342 22.8187 42.885 22.8859C41.4983 23.0762 41.5472 22.9866 41.5472 25.1133C41.5472 26.6692 41.5667 26.8371 41.7425 27.061C41.8889 27.2401 42.055 27.3072 42.3675 27.3072C43.0608 27.3072 43.3928 27.4192 43.4612 27.6878C43.5002 27.8109 43.6956 28.2475 43.9006 28.6392C44.1155 29.0198 44.2815 29.378 44.2815 29.4339C44.2815 29.4787 44.1448 29.8593 43.9787 30.2734C43.7053 30.9562 43.6956 31.0458 43.8323 31.2808C43.9104 31.4152 44.2034 31.6726 44.4963 31.8405C44.7795 32.0084 45.3264 32.3666 45.717 32.6352C46.7131 33.3292 46.7717 33.318 47.4064 32.2547L47.7482 31.6838H49.7989L50.131 32.2658C50.5216 32.9374 50.6974 33.1277 50.9317 33.1277C51.0196 33.1277 51.586 32.8031 52.1817 32.4002C52.7872 31.9972 53.3145 31.6726 53.3536 31.6726C53.5 31.6726 53.7539 31.2584 53.7539 31.0122C53.7539 30.8779 53.6465 30.4861 53.5098 30.1503C53.3731 29.8145 53.2657 29.4899 53.2657 29.4228C53.2657 29.3668 53.4317 28.9974 53.6465 28.6168C53.8516 28.2363 54.0567 27.8109 54.086 27.6878C54.1543 27.4192 54.4864 27.3072 55.1602 27.3072C55.4434 27.3072 55.6387 27.2289 55.7852 27.0834C55.9902 26.8595 56 26.7588 56 25.1357C56 23.1097 56.0098 23.1321 54.9258 22.953C54.5254 22.8971 54.1836 22.7963 54.1641 22.7404C54.1543 22.6956 53.9395 22.2479 53.7051 21.7665C53.461 21.2852 53.2657 20.8487 53.2657 20.8039C53.2657 20.748 53.3829 20.4234 53.5196 20.0876C53.9297 19.0578 53.9004 19.0018 52.3868 17.9944C51.6641 17.5131 50.9903 17.1213 50.8829 17.1437C50.7755 17.1661 50.4923 17.4907 50.2482 17.8601L49.7989 18.5429H48.8029C47.7091 18.5541 47.8361 18.6212 47.133 17.5915C46.7228 17.0094 46.5568 16.9982 45.7951 17.5579ZM47.1818 19.5055C47.4162 19.8301 47.6408 19.8637 48.3439 19.707C48.5685 19.6622 49.047 19.6622 49.3986 19.7294C50.0236 19.8301 50.0724 19.8189 50.3068 19.5727C50.4435 19.4272 50.6583 19.1137 50.795 18.8787C51.0587 18.3974 51.2149 18.3974 51.7716 18.8675C51.9376 19.013 52.1036 19.1361 52.1426 19.1361C52.1719 19.1361 52.2989 19.2145 52.4356 19.3152L52.6602 19.4831L52.3868 20.2555C52.0841 21.1061 52.0548 20.9494 52.7383 22.0576C52.9044 22.3262 53.1387 22.8411 53.2559 23.1881C53.5 23.8821 53.4317 23.8373 54.5645 24.0052L55.0235 24.0724V25.0798C55.0235 26.0536 55.0137 26.0872 54.7696 26.1879C54.6328 26.2551 54.3496 26.2998 54.1348 26.2998C53.6954 26.2998 53.3633 26.4565 53.3633 26.6692C53.3633 26.9378 52.7969 28.1691 52.4942 28.5721C52.1036 29.0758 52.0938 29.2101 52.4063 30.072L52.6602 30.7771L52.3477 30.9898C51.918 31.2808 51.1173 31.7845 51.0685 31.7845C51.0489 31.7845 50.9415 31.6166 50.8341 31.4152C50.7267 31.2249 50.5314 30.9338 50.4044 30.7659C50.17 30.4861 50.1505 30.4861 48.8029 30.5085C48.0509 30.5197 47.3674 30.5757 47.2795 30.6204C47.2013 30.6764 46.9963 30.9674 46.8205 31.2585C46.6447 31.5495 46.4787 31.7845 46.4396 31.7621C46.0197 31.5383 45.258 31.0682 45.0822 30.9115L44.8674 30.7212L45.1018 30.1615C45.4924 29.2325 45.4924 29.1765 45.092 28.6168C44.7112 28.1019 44.4963 27.6654 44.2815 26.9938C44.0959 26.4565 43.9299 26.2998 43.51 26.2998C43.3049 26.2998 42.9924 26.2662 42.8264 26.2327L42.5237 26.1655V24.0724L43.0901 24.0052C44.0373 23.8821 44.0764 23.8485 44.3889 22.9978C44.5451 22.5613 44.8479 21.968 45.0627 21.6658C45.4924 21.0614 45.5022 21.0278 45.1018 20.1211C44.9748 19.8301 44.8674 19.5615 44.8674 19.5391C44.8674 19.5055 45.2092 19.2481 45.6291 18.9682L46.381 18.4533L46.674 18.8339C46.84 19.0354 47.0646 19.3376 47.1818 19.5055Z" stroke="#7836BA"/>
<path d="M48.0216 21.9233C47.4162 22.1023 46.6545 22.7404 46.3322 23.3336C46.0685 23.8261 45.8439 24.6208 45.8439 25.0686C45.8439 25.9528 46.2736 27.0386 46.84 27.5759C47.5041 28.2139 47.8849 28.3706 48.7736 28.3706C49.5157 28.3706 49.6622 28.337 50.131 28.0348C50.6974 27.6766 51.2247 27.0162 51.4591 26.3782C51.6837 25.7402 51.6544 24.397 51.3907 23.759C51.127 23.1209 50.5802 22.4717 50.0431 22.1583C49.5939 21.8897 48.5294 21.7777 48.0216 21.9233ZM49.4669 23.0985C50.2872 23.4903 50.629 24.0947 50.629 25.1581C50.629 25.9193 50.3067 26.6132 49.7794 26.9938C49.4865 27.1953 49.2716 27.2513 48.7638 27.2513C48.2169 27.2513 48.0607 27.2065 47.7091 26.9266C46.5568 26.0088 46.6545 23.9604 47.8752 23.2217C48.4025 22.9083 48.9884 22.8635 49.4669 23.0985Z" stroke="#7836BA"/>
<path d="M26.5963 17.3452C26.44 17.4459 26.3326 17.9384 26.108 19.5839L26.0006 20.4345L25.3658 20.6808C24.7994 20.9159 23.9108 21.3412 23.4713 21.6098C23.3151 21.6994 23.2077 21.6322 22.1628 20.7368C21.2253 19.9309 21.1667 19.8973 20.9421 20.0316C20.571 20.2555 18.3054 22.9754 18.3054 23.1881C18.3054 23.3 18.6374 23.8933 19.0378 24.4977C19.4382 25.1021 19.7702 25.6506 19.7702 25.729C19.7702 25.7961 19.6433 26.1543 19.4773 26.5013C19.321 26.8483 19.0867 27.4863 18.9499 27.9117C18.823 28.337 18.657 28.7176 18.5886 28.7623C18.4519 28.8407 17.5535 29.031 16.7332 29.1541C15.9324 29.266 15.9129 29.2996 15.8836 31.1689C15.8348 33.1949 15.9031 33.7546 16.1863 33.9336C16.3914 34.068 16.8601 34.1575 18.0418 34.3142C18.3542 34.359 18.6374 34.4485 18.6765 34.5157C18.7156 34.5829 18.8425 34.9522 18.9597 35.344C19.0769 35.7246 19.3308 36.3738 19.5163 36.7767L19.8581 37.5155L19.0769 38.6908C18.657 39.34 18.3054 39.9668 18.3054 40.1011C18.3054 40.3474 20.8347 43.3136 21.0593 43.3136C21.2155 43.3136 21.4401 43.1457 22.4948 42.2279L23.2956 41.5451L24.194 42.0152C24.692 42.2838 25.2975 42.5637 25.5514 42.642L26.0103 42.7763L26.108 43.5823C26.3424 45.306 26.4107 45.6866 26.5182 45.8433C26.606 45.9664 27.0064 46 28.4615 46C30.0728 46 30.3071 45.9776 30.4439 45.7985C30.5317 45.6978 30.6489 45.1941 30.7173 44.6568C30.9712 42.6084 30.854 42.8659 31.6841 42.5301C32.0844 42.3622 32.6899 42.0712 33.0219 41.8809L33.6372 41.5339L34.2426 42.0488C34.5844 42.3398 35.0336 42.7316 35.2387 42.9442C35.4535 43.1457 35.7172 43.3136 35.8344 43.3136C36.1273 43.3136 38.6175 40.4146 38.6175 40.0788C38.6175 39.8661 38.2269 39.1945 37.309 37.8513C37.1234 37.5827 37.1234 37.5827 37.4652 36.7767C37.6605 36.3402 37.8949 35.6798 37.9925 35.3104C38.0902 34.941 38.1976 34.594 38.2367 34.5381C38.3148 34.4373 38.8617 34.3254 40.1214 34.1351C40.5999 34.068 40.844 33.9784 40.9319 33.8329C41.1272 33.5419 41.0686 29.4675 40.8733 29.3332C40.7562 29.2437 40.3948 29.1765 39.4964 29.0422C39.4183 29.031 39.1546 28.975 38.9105 28.9302C38.6664 28.8743 38.432 28.8295 38.3832 28.8295C38.266 28.8183 38.1878 28.628 37.8754 27.643C37.7289 27.1841 37.5043 26.602 37.3871 26.3446C37.2601 26.0983 37.1527 25.8409 37.1527 25.7849C37.1527 25.729 37.4847 25.1805 37.8851 24.5649C38.3539 23.8485 38.6175 23.3448 38.6175 23.1657C38.6175 22.9418 38.3148 22.5277 37.309 21.3972C36.5961 20.5801 35.9418 19.9197 35.8734 19.9197C35.7953 19.9197 35.268 20.3226 34.7016 20.8151L33.6567 21.7106L32.9438 21.33C32.5434 21.1173 31.9282 20.8375 31.5766 20.692L30.9321 20.4345L30.7661 19.0354C30.5415 17.1325 30.6685 17.2333 28.4712 17.2333C27.524 17.2333 26.6842 17.2892 26.5963 17.3452ZM29.8384 19.6286C30.0923 21.4084 30.063 21.3524 30.5415 21.4979C31.1274 21.677 31.479 21.8225 31.9477 22.0576C32.1821 22.1807 32.3872 22.2702 32.4067 22.2702C32.436 22.2702 32.6801 22.4158 32.9536 22.606C33.227 22.7851 33.5493 22.9418 33.6665 22.9418C33.7836 22.9418 34.2914 22.5837 34.7895 22.1583C35.2875 21.7218 35.7367 21.3748 35.7758 21.3748C35.8637 21.3748 37.3773 23.1097 37.4261 23.2553C37.4359 23.3112 37.1429 23.8149 36.7621 24.397C36.391 24.9678 36.0785 25.5387 36.0785 25.6506C36.0785 25.7625 36.2348 26.1767 36.4203 26.5685C36.6058 26.9602 36.9086 27.7997 37.0941 28.4377C37.3968 29.4787 37.4652 29.6242 37.7582 29.7921C37.9339 29.9041 38.2367 29.9936 38.4222 29.9936C38.6078 30.0048 39.0472 30.0608 39.3988 30.1391L40.0335 30.2734L40.0628 31.6278C40.0921 33.2173 40.2581 33.027 38.6175 33.2509C38.0511 33.318 37.5433 33.4299 37.4847 33.4859C37.4164 33.5419 37.3383 33.7657 37.2992 34.0008C37.1918 34.6836 36.9574 35.3776 36.5082 36.4074C36.0297 37.4931 35.9906 37.7617 36.2543 38.0975C36.3519 38.2319 36.6742 38.7132 36.9769 39.1833L37.5238 40.034L36.6742 41.0078L35.8246 41.9704L35.4926 41.7018C35.307 41.5451 35.1117 41.3772 35.0531 41.3324C34.6528 40.9518 33.7739 40.2914 33.686 40.2914C33.6176 40.2914 33.1977 40.5153 32.7485 40.7839C32.2993 41.0526 31.5474 41.4108 31.0786 41.5787C30.6099 41.7466 30.19 41.9368 30.1411 42.0152C30.0532 42.1383 29.731 44.1867 29.731 44.6344C29.731 44.8807 29.7017 44.8807 28.5201 44.8807C27.6021 44.8807 27.2994 44.8471 27.2603 44.7352C27.231 44.6456 27.1822 44.2315 27.1431 43.8061C27.1138 43.3808 27.0162 42.7763 26.9478 42.4629L26.8111 41.9033L26.0006 41.6346C25.1901 41.3772 24.2526 40.8959 23.7545 40.5041C23.3151 40.1459 23.2467 40.1795 21.9675 41.2652C21.5964 41.5898 21.2351 41.8585 21.1862 41.8585C21.1276 41.8585 20.7272 41.4443 20.278 40.9294L19.4773 40.0116L19.8874 39.34C20.112 38.9706 20.3269 38.646 20.3562 38.6124C20.5612 38.411 20.8444 37.8065 20.8444 37.5715C20.8444 37.4148 20.6687 36.9223 20.4636 36.4633C20.1316 35.747 19.9362 35.1537 19.5945 33.8553C19.4968 33.4747 19.3992 33.4411 17.9734 33.1949C17.4168 33.1053 16.9773 32.971 16.9285 32.8815C16.8797 32.8031 16.8504 32.1763 16.8601 31.5047L16.8894 30.2734L17.8172 30.1167C18.325 30.0384 18.9109 29.9153 19.116 29.8369C19.4968 29.7138 19.4968 29.7026 19.8581 28.4713C20.0534 27.7885 20.3757 26.9155 20.5808 26.5349C20.7761 26.1543 20.9421 25.7737 20.9421 25.6842C20.9421 25.6058 20.737 25.2253 20.4831 24.8335C20.2194 24.4529 19.8874 23.938 19.7409 23.6918L19.4577 23.2441L20.2683 22.3038C20.7175 21.8001 21.1276 21.3748 21.1765 21.3748C21.2253 21.3748 21.6745 21.7218 22.1725 22.1583C22.6803 22.5837 23.1686 22.9418 23.2663 22.9418C23.3737 22.9418 23.8229 22.718 24.2721 22.4493C24.7213 22.1807 25.4733 21.8225 25.9322 21.6658C26.899 21.33 26.9283 21.2852 27.0943 19.9532C27.1529 19.4719 27.2115 18.9794 27.2408 18.8563C27.2603 18.7332 27.2799 18.5653 27.2799 18.4869C27.2896 18.375 27.5631 18.3526 28.481 18.375L29.6724 18.4086L29.8384 19.6286Z" stroke="#7836BA"/>
<path d="M27.2408 24.9678C26.0982 25.2812 24.6139 26.2886 24.0475 27.1169C23.8717 27.3744 23.7057 27.6094 23.6764 27.643C23.5104 27.7997 22.9831 29.0198 22.8073 29.6466C22.5632 30.5197 22.5241 32.4002 22.7389 33.3292C22.9049 34.0456 23.3834 35.1985 23.6959 35.6126C23.8229 35.7805 23.9987 36.0492 24.0963 36.2059C24.4186 36.7208 25.8736 37.8401 26.5279 38.064C28.0709 38.6012 29.8189 38.4557 31.1567 37.6834C31.4302 37.5267 31.7036 37.314 31.772 37.2245C31.8501 37.1237 31.9575 37.0454 32.0259 37.0454C32.27 37.0454 33.4028 35.5231 33.7348 34.7396C34.0961 33.8777 34.2035 33.4859 34.3305 32.5121C34.4477 31.6054 34.3696 31.2473 34.0571 31.1577C33.6176 31.0234 33.5004 31.2249 33.3735 32.2882C33.0903 34.7284 31.4888 36.7432 29.4673 37.1685C28.7349 37.3252 27.358 37.2245 26.8013 36.9782C24.0377 35.747 22.7682 32.2323 24.0084 29.2437C24.8873 27.1281 26.9088 25.7849 28.8814 26.0088C29.6919 26.0983 30.0435 26.2215 30.8833 26.714C31.6255 27.1505 31.7817 27.1505 32.0161 26.714C32.2407 26.311 31.5669 25.6842 30.4146 25.2253C29.8384 24.9902 29.4575 24.9119 28.6568 24.8895C28.0904 24.8671 27.4556 24.9007 27.2408 24.9678Z" stroke="#7836BA"/>
<path d="M30.9321 29.96C29.4868 31.6166 28.2271 33.027 28.1392 33.1165C27.983 33.262 27.8365 33.1277 26.567 31.695C25.1998 30.1391 24.9362 29.9376 24.6725 30.2399C24.3405 30.6204 24.526 30.9115 26.1959 32.8255C27.1627 33.9225 27.9146 34.6948 28.022 34.6948C28.1392 34.6948 29.3697 33.3628 31.1763 31.292C33.6664 28.4489 34.1547 27.8445 34.1547 27.5871C34.1547 27.2736 33.9106 26.9714 33.6762 26.9714C33.6079 26.9714 32.3774 28.3146 30.9321 29.96Z" stroke="#7836BA"/>
</svg>
