<svg width="13" height="10" viewBox="0 0 13 10" fill="none" xmlns="http://www.w3.org/2000/svg">
<path d="M12.8984 4.99985L8.19144 0.292849C8.09859 0.200005 7.98837 0.126356 7.86706 0.0761087C7.74576 0.0258616 7.61574 -2.29936e-07 7.48444 -2.36653e-07C7.35314 -2.43371e-07 7.22312 0.0258616 7.10181 0.0761087C6.9805 0.126356 6.87028 0.200005 6.77744 0.292849C6.68459 0.385694 6.61094 0.495916 6.5607 0.617223C6.51045 0.738531 6.48459 0.868547 6.48459 0.999849C6.48459 1.13115 6.51045 1.26117 6.5607 1.38247C6.61094 1.50378 6.68459 1.614 6.77744 1.70685L9.07044 3.99985L1.48444 3.99985C1.21922 3.99985 0.964866 4.10521 0.77733 4.29274C0.589794 4.48028 0.484438 4.73463 0.484438 4.99985C0.484438 5.26507 0.589794 5.51942 0.77733 5.70696C0.964866 5.89449 1.21922 5.99985 1.48444 5.99985L9.07044 5.99985L6.77744 8.29285C6.68425 8.3855 6.6103 8.49566 6.55984 8.617C6.50938 8.73833 6.4834 8.86844 6.4834 8.99985C6.4834 9.13126 6.50938 9.26137 6.55984 9.3827C6.6103 9.50403 6.68425 9.6142 6.77744 9.70685C6.96496 9.89432 7.21927 9.99964 7.48444 9.99964C7.7496 9.99964 8.00391 9.89432 8.19144 9.70685L12.8984 4.99985Z" fill="#F5F5F5"/>
</svg>
